<svg version="1.2" xmlns="http://www.w3.org/2000/svg" viewBox="0 0 257 71" width="257" height="71"><style>.a{fill:#fae80a}.b{fill:#231f20}</style><path class="a" d="m247 35.3m-34.7 31.6h-176.6c-8.3-0.1-16.2-3.5-22-9.4-5.8-5.8-9.1-13.8-9.1-22.1 0-8.2 3.3-16.2 9.1-22 5.8-5.9 13.7-9.3 22-9.4h176.1c8.3 0.1 16.2 3.5 22 9.4 5.8 5.8 9.1 13.8 9.1 22 0 8.3-3.3 16.3-9.1 22.1-5.8 5.9-13.2 9.3-21.5 9.4zm38.1-65.1c-2.5 0-4.8 1.5-5.7 3.8-1 2.3-0.4 5 1.3 6.7 1.8 1.8 4.5 2.3 6.8 1.4 2.3-1 3.8-3.3 3.8-5.8q0-1.2-0.5-2.3-0.5-1.2-1.3-2-0.9-0.9-2-1.4-1.2-0.4-2.4-0.4zm0 11.1c-2 0-3.8-1.2-4.6-3.1-0.7-1.8-0.3-3.9 1.1-5.3 1.4-1.4 3.6-1.9 5.4-1.1 1.8 0.8 3 2.5 3.1 4.5q0 1-0.4 1.9-0.4 1-1.1 1.7-0.7 0.7-1.6 1-0.9 0.4-1.9 0.4zm-15 22.8m16.9-26.7q-0.1-0.1-0.1-0.2-0.1-0.1-0.1-0.1-0.1-0.1-0.1-0.2-0.1 0-0.2-0.1 0.1 0 0.2-0.1 0 0 0.1-0.1 0.1 0 0.1-0.1 0.1 0 0.2-0.1 0.1-0.1 0.2-0.3 0.1-0.1 0.1-0.3 0.1-0.2 0.1-0.3 0.1-0.2 0.1-0.4 0-0.2 0-0.3-0.1-0.1-0.1-0.3 0-0.1-0.1-0.2-0.1-0.2-0.1-0.3-0.1-0.1-0.2-0.2-0.1-0.1-0.2-0.2-0.1-0.1-0.2-0.2-0.2-0.1-0.3-0.1-0.1-0.1-0.3-0.1-0.2 0-0.3-0.1-0.2 0-0.4 0-0.1 0-0.3 0h-2.9v6.5h1.6v-2.5h0.4q0.1 0 0.1 0 0 0 0.1 0 0 0 0.1 0 0 0 0 0 0.1 0 0.1 0.1 0 0 0 0 0 0 0.1 0 0 0 0 0 0 0.1 0.1 0.1 0 0 0.1 0.1 0 0 0 0 0.1 0.1 0.1 0.1 0.2 0.2 0.5 0.7l0.8 1.2 0.1 0.2h2l-0.5-0.7zm-1.1-2.1h-0.1v0.1q0 0 0 0 0 0 0 0 0 0.1-0.1 0.1 0 0 0 0-0.1 0-0.2 0-0.1 0-0.1 0.1-0.1 0-0.2 0-0.1 0-0.2 0h-1.1v-0.9h1.3q0.1 0 0.2 0 0 0 0.1 0 0.1 0 0.2 0 0 0.1 0.1 0.1 0 0 0.1 0.1 0 0 0 0 0 0.1 0 0.1 0 0.1 0 0.1 0 0 0 0.1 0 0 0 0 0 0.1 0 0.1 0 0 0 0z"/><path class="b" d="m214.1 0h-180.6c-18.9 0.7-33.5 16.5-33.5 35.4 0 19.4 14.7 35.5 35.3 35.5h177.5c20.8 0 34.2-16 34.2-35.3v-0.3c0-18.9-14-34.6-32.9-35.3zm-2.3 66.9h-176.6c-8.3-0.1-16.2-3.5-22-9.4-5.8-5.8-9.1-13.8-9.1-22.1 0-8.2 3.3-16.2 9.1-22 5.8-5.9 13.7-9.3 22-9.4h176.6c8.3 0.1 16.2 3.5 22 9.4 5.8 5.8 9.1 13.8 9.1 22 0 8.3-3.3 16.3-9.1 22.1-5.8 5.9-13.7 9.3-22 9.4zm-171.5-43.8q-0.7-0.6-1.6-1-0.8-0.5-1.7-0.7-0.9-0.3-1.9-0.4-0.9-0.1-1.9-0.1h-15.5v0.7q0.1 0 0.3 0.1 0.1 0 0.2 0.1 0.1 0 0.2 0.1 0.1 0.1 0.2 0.2 0.1 0.1 0.2 0.2 0 0.1 0 0.2 0.1 0.2 0.1 0.3 0 0.1 0 0.3v22.1q0 0.2 0 0.3 0 0.1-0.1 0.3 0 0.1 0 0.2-0.1 0.1-0.2 0.2-0.1 0.1-0.2 0.2-0.1 0.1-0.2 0.1-0.1 0.1-0.2 0.1-0.2 0.1-0.3 0.1v0.7h9.3v-0.7q-0.2 0-0.3-0.1-0.1 0-0.3-0.1-0.1 0-0.2-0.1-0.1-0.1-0.2-0.2-0.1-0.1-0.1-0.2-0.1-0.1-0.1-0.3 0-0.1 0-0.2-0.1-0.1 0-0.3v-7.6h5.7q0.6 0 1.3 0 0.6 0 1.3 0 0.6-0.1 1.3-0.2 0.6 0 1.2-0.1 0.4-0.1 0.8-0.2 0.4-0.1 0.8-0.3 0.4-0.2 0.7-0.3 0.4-0.2 0.7-0.5 0.4-0.2 0.8-0.5 0.3-0.4 0.6-0.7 0.3-0.4 0.5-0.8 0.3-0.4 0.5-0.8 0.2-0.4 0.4-0.9 0.1-0.5 0.2-1 0.1-0.5 0.2-1 0-0.5 0-1 0.1-0.9-0.1-1.7-0.1-0.9-0.4-1.7-0.4-0.8-0.9-1.5-0.5-0.7-1.1-1.3zm-5.1 8.4q-0.5 0.3-1 0.4-0.5 0.2-1.1 0.3-0.5 0.1-1 0.1-0.5 0-1.1 0h-5.2v-6h5q0.6-0.1 1.2-0.1 0.5 0.1 1.1 0.1 0.5 0.1 1.1 0.3 0.5 0.1 1 0.3 0.6 0.4 0.9 1 0.3 0.7 0.3 1.4 0 0.7-0.3 1.3-0.4 0.6-0.9 0.9zm76-2.6q-1.7-1.4-3.7-2.1-2.1-0.7-4.2-0.7-2.1 0-4.2 0.7-2 0.7-3.7 2.1c-0.9 0.8-1.7 1.9-2.2 3.1-0.6 1.2-0.8 2.4-0.8 3.7 0 1.3 0.2 2.6 0.8 3.8 0.5 1.2 1.3 2.2 2.2 3.1q1.7 1.3 3.7 2.1 2.1 0.7 4.2 0.7 2.1 0 4.2-0.7 2-0.8 3.6-2.1c1-0.9 1.8-1.9 2.3-3.1 0.6-1.2 0.8-2.5 0.8-3.8 0-1.3-0.2-2.5-0.8-3.7-0.5-1.2-1.3-2.3-2.2-3.1zm-3.9 10.7q-0.4 0.4-0.8 0.7-0.5 0.2-1 0.4-0.5 0.2-1.1 0.3-0.5 0.1-1.1 0.1-0.5 0-1.1-0.1-0.5-0.1-1-0.3-0.5-0.2-1-0.4-0.5-0.3-0.9-0.7-0.7-0.8-1.1-1.8-0.4-1-0.4-2 0-1.1 0.4-2.1 0.4-1 1.1-1.8 0.8-0.7 1.9-1.1 1-0.3 2.1-0.3 1.1 0 2.1 0.3 1.1 0.4 1.9 1.1 0.7 0.8 1.1 1.8 0.4 1 0.4 2.1 0 1-0.4 2-0.3 1-1.1 1.8zm143.1-37.8c-2.5 0-4.8 1.5-5.7 3.8-1 2.3-0.4 5 1.3 6.7 1.8 1.8 4.5 2.3 6.8 1.4 2.3-1 3.8-3.3 3.8-5.8q0-1.2-0.5-2.3-0.5-1.2-1.3-2-0.9-0.9-2-1.4-1.2-0.4-2.4-0.4zm0 11.1c-2 0-3.8-1.2-4.6-3.1-0.7-1.8-0.3-3.9 1.1-5.3 1.4-1.4 3.6-1.9 5.4-1.1 1.8 0.8 3 2.5 3.1 4.5q0 1-0.4 1.9-0.4 1-1.1 1.7-0.7 0.7-1.6 1-0.9 0.4-1.9 0.4zm-190.1 14.2q0.1 0 0.2 0 0.1 0.1 0.2 0.1 0.1 0.1 0.2 0.1 0.1 0.1 0.2 0.1 0 0.1 0 0.2 0.1 0.1 0.1 0.2 0 0.1 0 0.2 0 0.1 0 0.2v8.1q0.1 0.5 0 1 0 0.4-0.1 0.9-0.2 0.4-0.4 0.8-0.2 0.5-0.5 0.8-0.3 0.3-0.7 0.5-0.4 0.2-0.8 0.3-0.5 0.2-0.9 0.2-0.5 0.1-0.9 0-0.5 0.1-0.9 0-0.5 0-0.9-0.2-0.4-0.1-0.8-0.3-0.4-0.2-0.8-0.5-0.3-0.4-0.5-0.8-0.2-0.4-0.3-0.9-0.1-0.4-0.2-0.9 0-0.5 0-0.9v-8.1q0-0.1 0-0.2 0-0.1 0.1-0.2 0-0.1 0-0.2 0-0.1 0.1-0.2 0.1-0.1 0.1-0.1 0.1-0.1 0.2-0.1 0.1 0 0.2-0.1 0.1 0 0.2 0v-0.4h-7v0.4q0.1 0 0.2 0 0.1 0.1 0.2 0.1 0.1 0.1 0.1 0.1 0.1 0.1 0.2 0.1 0.1 0.1 0.1 0.2 0 0.1 0.1 0.2 0 0.1 0 0.2 0 0.1 0 0.2v9q0 4.2 2.3 6.3 2.4 2 7.2 2 4.8 0 7.3-2 0.6-0.6 1.1-1.3 0.5-0.6 0.8-1.4 0.3-0.8 0.4-1.7 0.2-0.8 0.1-1.6v-9.3q0-0.1 0-0.2 0-0.1 0-0.2 0.1-0.1 0.1-0.2 0-0.1 0.1-0.2 0.1 0 0.2-0.1 0 0 0.1-0.1 0.1 0 0.2 0 0.1-0.1 0.2-0.1v-0.5h-7.1zm25.3 10.8q0.3 0 0.6-0.1 0.3-0.1 0.6-0.2 0.3-0.1 0.5-0.2 0.3-0.2 0.6-0.3 0.3-0.2 0.5-0.4 0.3-0.2 0.5-0.5 0.2-0.2 0.4-0.5 0.2-0.3 0.4-0.6 0.1-0.3 0.2-0.6 0.2-0.4 0.2-0.7 0.1-0.4 0.2-0.7 0-0.4 0-0.7 0-0.7-0.1-1.3-0.1-0.6-0.3-1.1-0.3-0.6-0.7-1.1-0.3-0.5-0.8-0.9-0.6-0.4-1.2-0.7-0.7-0.3-1.4-0.5-0.7-0.2-1.4-0.3-0.7-0.1-1.4 0h-11.8v0.5q0.1 0 0.2 0 0.1 0 0.2 0.1 0.1 0 0.2 0.1 0.1 0 0.1 0.1 0.1 0.1 0.1 0.1 0.1 0.1 0.1 0.2 0 0.1 0 0.2 0 0.1 0 0.2v15.5q0 0.1 0 0.2 0 0.1 0 0.2 0 0.1-0.1 0.2 0 0.1-0.1 0.1 0 0.1-0.1 0.1-0.1 0.1-0.2 0.1-0.1 0.1-0.2 0.1-0.1 0-0.2 0v0.5h7.1v-0.5q-0.1 0-0.2 0-0.1 0-0.2-0.1-0.1 0-0.2-0.1-0.1 0-0.2-0.1 0-0.1-0.1-0.1 0-0.1 0-0.2-0.1-0.1-0.1-0.2 0-0.1 0-0.2v-4.9q1.1 1.3 2.2 2.6 1 1.2 2.1 2.5 1.1 1.3 2.1 2.6 1.1 1.3 2.1 2.6c0.2 0.2-0.4 0.4-0.8 0.7 0 0 8.2 0 8.2 0l-9.4-11.5q0.2 0 0.4 0 0.3 0 0.5 0 0.2-0.1 0.5-0.1 0.2 0 0.4-0.1zm-8.3-3.5v-4.2h3.9q0.4 0 0.8 0 0.5 0 0.9 0.1 0.4 0 0.8 0.1 0.4 0.1 0.8 0.3 0.3 0.1 0.4 0.3 0.2 0.1 0.3 0.4 0.2 0.2 0.2 0.4 0.1 0.3 0 0.5 0.1 0.3 0 0.5-0.1 0.3-0.2 0.5-0.1 0.2-0.3 0.3-0.2 0.2-0.4 0.3-0.4 0.2-0.8 0.3-0.4 0.1-0.8 0.2-0.3 0-0.8 0-0.4 0.1-0.8 0zm112.5 5.6q-0.1 0-0.2 0.1-0.1 0-0.2 0-0.1 0.1-0.2 0.1-0.1 0-0.2 0h-10.4v-12.2q0-0.1 0-0.2 0-0.1 0-0.2 0-0.1 0.1-0.2 0-0.1 0.1-0.2 0.1-0.1 0.2-0.2 0.1-0.1 0.2-0.1 0.1-0.1 0.3-0.1 0.1 0 0.2 0v-0.7h-7.9v0.7q0.1 0 0.3 0 0.1 0 0.2 0.1 0.1 0.1 0.2 0.1 0.1 0.1 0.2 0.2 0.1 0.1 0.2 0.2 0 0.1 0 0.2 0.1 0.1 0.1 0.2 0 0.1 0 0.2v14.9q0 0.1 0 0.3 0 0.1-0.1 0.2 0 0.1 0 0.2-0.1 0.1-0.2 0.2-0.1 0.1-0.2 0.1-0.1 0.1-0.2 0.1-0.1 0.1-0.2 0.1-0.2 0.1-0.3 0.1v0.6h17.2q0.1 0 0.2 0 0.1 0 0.2 0 0.1 0 0.2 0.1 0.1 0 0.2 0.1 0.1 0.1 0.2 0.2 0 0.1 0.1 0.2 0 0.1 0.1 0.2 0 0.1 0 0.3h0.6v-6.8h-0.6q0 0.1 0 0.2-0.1 0.1-0.1 0.2-0.1 0.2-0.1 0.3-0.1 0.1-0.2 0.2zm20.9 0q-0.1 0-0.2 0.1-0.1 0-0.2 0-0.1 0.1-0.2 0.1-0.2 0-0.3 0h-10.3v-12.2q-0.1-0.1 0-0.2 0-0.1 0-0.2 0-0.1 0.1-0.2 0-0.1 0.1-0.2 0.1-0.1 0.2-0.2 0.1-0.1 0.2-0.1 0.1-0.1 0.2-0.1 0.2 0 0.3 0v-0.7h-7.9v0.7q0.1 0 0.2 0 0.2 0 0.3 0.1 0.1 0 0.2 0.1 0.1 0.1 0.2 0.2 0.1 0.1 0.1 0.2 0.1 0.1 0.1 0.2 0 0.1 0 0.2 0 0.1 0 0.2v14.9q0 0.1 0 0.3 0 0.1 0 0.2 0 0.1-0.1 0.2 0 0.1-0.1 0.2-0.1 0.1-0.2 0.1-0.1 0.1-0.2 0.1-0.1 0.1-0.3 0.1-0.1 0.1-0.2 0.1v0.6h17.1q0.1 0 0.3 0 0.1 0 0.2 0 0.1 0 0.2 0.1 0.1 0 0.2 0.1 0.1 0.1 0.1 0.2 0.1 0.1 0.2 0.2 0 0.1 0 0.2 0.1 0.1 0.1 0.3h0.6v-6.8h-0.6q0 0.1-0.1 0.2 0 0.1 0 0.2-0.1 0.2-0.2 0.3 0 0.1-0.1 0.2zm21.6-11.1q-1.7-1.3-3.7-2-2-0.7-4.2-0.7-2.1 0-4.1 0.7-2 0.7-3.7 2c-1 0.9-1.8 1.9-2.3 3.1-0.5 1.2-0.8 2.5-0.8 3.8 0 1.3 0.3 2.6 0.8 3.7 0.5 1.2 1.3 2.3 2.3 3.1q1.7 1.4 3.7 2.1 2 0.7 4.1 0.7 2.2 0 4.2-0.7 2-0.7 3.7-2.1c1-0.8 1.7-1.9 2.3-3.1 0.5-1.1 0.8-2.4 0.8-3.7 0-1.3-0.3-2.6-0.8-3.8-0.5-1.2-1.3-2.2-2.3-3.1zm-3.8 10.7q-0.4 0.4-0.9 0.7-0.5 0.3-1 0.5-0.5 0.2-1 0.2-0.6 0.1-1.1 0.1-0.6 0-1.1-0.1-0.6 0-1.1-0.2-0.5-0.2-1-0.5-0.5-0.3-0.9-0.6-0.7-0.8-1.1-1.8-0.4-1-0.4-2.1 0-1.1 0.4-2.1 0.4-1 1.1-1.7 0.9-0.7 1.9-1.1 1-0.4 2.1-0.4 1.1 0 2.2 0.4 1 0.4 1.8 1.1 0.4 0.3 0.7 0.8 0.3 0.4 0.5 0.9 0.2 0.5 0.3 1 0.1 0.6 0.1 1.1 0 0.5-0.1 1.1-0.1 0.5-0.3 1-0.2 0.5-0.5 0.9-0.3 0.5-0.6 0.8zm23.8-30.6q-0.1-0.1-0.1-0.1-0.1-0.1-0.1-0.2-0.1-0.1-0.2-0.1 0-0.1-0.1-0.2 0.1 0 0.2 0 0-0.1 0.1-0.1 0.1-0.1 0.1-0.1 0.1-0.1 0.1-0.2 0.2-0.1 0.3-0.2 0.1-0.2 0.1-0.4 0.1-0.1 0.1-0.3 0.1-0.2 0.1-0.4 0-0.1-0.1-0.3 0-0.1 0-0.2 0-0.2-0.1-0.3-0.1-0.1-0.1-0.2-0.1-0.2-0.2-0.3-0.1-0.1-0.2-0.2-0.1-0.1-0.2-0.1-0.2-0.1-0.3-0.2-0.2 0-0.3-0.1-0.2 0-0.3 0-0.2 0-0.4 0-0.1-0.1-0.3 0h-2.9v6.4h1.6v-2.4h0.4q0.1 0 0.1 0 0 0 0.1 0 0 0 0.1 0 0 0 0 0 0.1 0 0.1 0 0 0 0 0 0 0 0.1 0 0 0.1 0 0.1 0 0 0.1 0 0 0.1 0.1 0.1 0 0 0 0.1 0.1 0 0.1 0 0.1 0.2 0.5 0.8l0.7 1.1 0.2 0.2h2l-0.5-0.7zm-1.1-2h-0.1q0 0 0 0 0 0.1 0 0.1 0 0-0.1 0 0 0 0 0-0.1 0.1-0.2 0.1-0.1 0-0.2 0 0 0-0.1 0-0.1 0-0.2 0h-1.1v-0.9h1.3q0.1 0 0.2 0 0 0 0.1 0 0.1 0 0.2 0.1 0 0 0.1 0 0 0.1 0.1 0.1 0 0 0 0.1 0 0 0 0.1 0 0 0 0 0 0.1 0 0.1 0 0 0 0.1 0 0 0 0 0 0.1 0 0.1zm-83.9 21.8q-0.8-0.7-1.7-1.2-1-0.5-2-0.9-1-0.3-2.1-0.5-1.1-0.2-2.1-0.1-1.1-0.1-2.2 0.1-1 0.2-2.1 0.5-1 0.4-1.9 0.9-0.9 0.6-1.7 1.3-0.8 0.6-1.4 1.4-0.6 0.8-1 1.7-0.4 0.9-0.6 1.9-0.1 0.9-0.1 1.9 0 1 0.1 2 0.2 1 0.6 1.9 0.5 0.9 1 1.6 0.6 0.8 1.4 1.5 0.8 0.7 1.7 1.2 0.9 0.5 2 0.9 1 0.4 2 0.5 1.1 0.2 2.2 0.1 1 0.1 2.1-0.1 1.1-0.1 2.1-0.5 1-0.3 1.9-0.9 1-0.5 1.8-1.2c1-0.9 1.8-2 2.3-3.2 0.5-1.2 0.8-2.5 0.8-3.8 0-1.3-0.2-2.6-0.8-3.8-0.5-1.2-1.3-2.3-2.3-3.2zm-4.1 10.6q-0.8 0.7-1.8 1.1-1 0.3-2 0.3-1 0-2-0.3-1-0.4-1.8-1.1-0.7-0.7-1.1-1.7-0.3-0.9-0.3-1.9 0-1 0.3-2 0.4-0.9 1.1-1.7 0.8-0.6 1.8-1 1-0.4 2-0.4 1 0 2 0.4 1 0.4 1.8 1 0.7 0.8 1.1 1.7 0.3 1 0.3 2 0 1-0.3 1.9-0.4 1-1.1 1.7zm-19.2-16.2q-0.8-0.6-1.6-1-0.9-0.5-1.8-0.8-0.9-0.3-1.8-0.4-1-0.1-1.9 0h-15.5v0.7q0.1 0 0.2 0 0.2 0.1 0.3 0.1 0.1 0.1 0.2 0.2 0.1 0 0.2 0.1 0.1 0.1 0.1 0.3 0.1 0.1 0.1 0.2 0 0.2 0 0.3 0 0.1 0 0.2v22.4q0 0.1 0 0.3 0 0.1 0 0.2 0 0.2-0.1 0.3 0 0.1-0.1 0.2-0.1 0.1-0.2 0.2-0.1 0.1-0.2 0.1-0.1 0.1-0.3 0.1-0.1 0.1-0.2 0.1v0.7h9.2v-0.7q-0.1 0-0.2-0.1-0.2 0-0.3-0.1-0.1-0.1-0.2-0.1-0.1-0.1-0.2-0.2-0.1-0.1-0.2-0.2 0-0.2 0-0.3-0.1-0.1-0.1-0.2 0-0.2 0-0.3v-7.7h5.8q0.6 0 1.3 0 0.6 0 1.2 0 0.7-0.1 1.3-0.2 0.7 0 1.3-0.1 0.4-0.1 0.8-0.2 0.4-0.1 0.8-0.3 0.4-0.1 0.7-0.3 0.4-0.2 0.7-0.5 0.4-0.2 0.7-0.6 0.4-0.3 0.7-0.6 0.3-0.4 0.5-0.8 0.3-0.4 0.5-0.8 0.2-0.5 0.3-1 0.2-0.5 0.3-1 0.1-0.5 0.1-1 0.1-0.5 0.1-1 0-0.8-0.1-1.7-0.1-0.9-0.5-1.7-0.3-0.8-0.8-1.5-0.5-0.7-1.1-1.3zm-5.2 8.5q-0.5 0.2-1 0.4-0.5 0.1-1 0.2-0.5 0.1-1 0.1-0.6 0.1-1.1 0h-5.3v-6h5.1q0.6-0.1 1.1-0.1 0.6 0.1 1.1 0.1 0.6 0.1 1.1 0.3 0.6 0.1 1.1 0.3 0.6 0.4 0.9 1.1 0.3 0.6 0.3 1.3 0 0.7-0.3 1.3-0.4 0.6-1 1z"/></svg>